# xmcd
#
# Track frame offsets:
#	150
#	9199
#	18960
#	30271
#	41600
#	52334
#	63763
#	76589
#	87785
#	98901
#	109434
#	117835
#	128714
#	139409
#	149740
#	162473
#	171705
#	182678
#	193899
#	206480
#	218946
#	231247
#	243406
#	257151
#	270152
#	281517
#	294293
#	306086
#	316838
#	328866
#
# Disc length: 4494 seconds
#
# Revision: 0
# Processed by: cddbd v1.5.2PL0 Copyright (c) Steve Scherf et al.
# Submitted via: EasyCDDAExtractor 10.2.0.1
#
DISCID=b5118c1e
DTITLE=Various Artist - Crescent City Bounce, From Blues To R&B In New Orlean
DTITLE=s - Disc A (1949-56)
DYEAR=2007
DGENRE=Blues
TTITLE0=The Royal Kings - Bouncin' The Boogie
TTITLE1=Big Boy Myles - That Girl I Married
TTITLE2=Rodney Harris - Blow Your Top
TTITLE3=Lloyd Lambert - Whistlin' Joe
TTITLE4=Leonard Lee - Tryin' To Fool Me
TTITLE5=Fat Man Matthews - You Know It
TTITLE6=Bobby Marchan - Pity Poor Me
TTITLE7=Jimmy Gil - North Wind
TTITLE8=Little Booker - Doing The Hambone
TTITLE9=Little Mr. Midnight - Got A Brand New Baby
TTITLE10=Big Boy Myles - Who's Been Fooling You
TTITLE11=Roy Montrell - (Every Time I Hear) That Mellow Saxophone
TTITLE12=Lil' Willie Gibson - Why
TTITLE13=Willie Johnson - Say Baby
TTITLE14=Ray Lewis and The Four Bars - Jealous Blues
TTITLE15=The Royal Kings - Teachin' And Preachin'
TTITLE16=Bobby Marchan - Have Mercy
TTITLE17=Fat Man Matthews - Down The Line
TTITLE18=George Miller - Boogie's The Thing
TTITLE19=Little Booker - Thinking About My Baby
TTITLE20=Little Mr. Midnight - 4 O'Clock Blues
TTITLE21=Jimmy Gil - Gather 'Round
TTITLE22=Leonard Lee - When The Sun Goes Down
TTITLE23=Lloyd Lambert - Heavy Sugar
TTITLE24=Lil' Will Gibson - Brother Bill
TTITLE25=Bobby Marchan - Give A Helping Hand
TTITLE26=Fats Matthews - Goin' Down
TTITLE27=Ray Lewis and The Four Bars - When You Were Mine
TTITLE28=Willie Johnson - That Night
TTITLE29=Big Boy Myles - Hickory, Dickory, Dock
EXTD=
EXTT0=
EXTT1=
EXTT2=
EXTT3=
EXTT4=
EXTT5=
EXTT6=
EXTT7=
EXTT8=
EXTT9=
EXTT10=
EXTT11=
EXTT12=
EXTT13=
EXTT14=
EXTT15=
EXTT16=
EXTT17=
EXTT18=
EXTT19=
EXTT20=
EXTT21=
EXTT22=
EXTT23=
EXTT24=
EXTT25=
EXTT26=
EXTT27=
EXTT28=
EXTT29=
PLAYORDER=
